<svg width="174" height="51" viewBox="0 0 174 51" fill="none" xmlns="http://www.w3.org/2000/svg">
<path d="M13.1085 43.8558C11.2613 43.8558 9.66896 43.2189 8.39508 41.8813C7.0575 40.6074 6.42056 39.015 6.42056 37.1679V22.1997H12.0893C12.8537 22.1997 13.5543 21.945 14.1276 21.3717C14.6371 20.8622 14.9556 20.1615 14.9556 19.3335C14.9556 18.5692 14.6371 17.8685 14.1276 17.2953C13.5543 16.7857 12.8537 16.4673 12.0893 16.4673H6.42056V7.48636C6.42056 6.59464 6.1021 5.89401 5.46516 5.25706C4.82821 4.62012 4.12756 4.30165 3.23584 4.30165C2.34412 4.30165 1.57981 4.62012 0.942863 5.25706C0.305921 5.89401 0.0511475 6.59464 0.0511475 7.48636V37.1679C0.0511475 40.7985 1.32501 43.8558 3.87278 46.4036C6.42055 48.9513 9.47788 50.2252 13.1085 50.2252C14.0002 50.2252 14.7008 49.9704 15.3378 49.3335C15.9747 48.6966 16.2932 47.9322 16.2932 47.0405C16.2932 46.1488 15.9747 45.4482 15.3378 44.8112C14.7008 44.1743 14.0002 43.8558 13.1085 43.8558V43.8558Z" fill="#FF7D00"/>
<path d="M44.2444 50.48C49.1489 50.48 53.289 48.7603 56.7285 45.3208C60.168 41.8813 61.9514 37.7412 61.9514 32.8367C61.9514 27.9322 60.168 23.7921 56.7285 20.3526C53.289 16.9131 49.1489 15.1297 44.2444 15.1297C39.34 15.1297 35.1999 16.9131 31.7604 20.3526C28.3209 23.7921 26.6011 27.9322 26.6011 32.8367C26.6011 37.7412 28.3209 41.8813 31.7604 45.3208C35.1999 48.7603 39.34 50.48 44.2444 50.48V50.48ZM44.2444 21.2444C47.4292 21.2444 50.168 22.3908 52.461 24.6201C54.6903 26.9131 55.8368 29.652 55.8368 32.8367C55.8368 36.0214 54.6903 38.7603 52.461 40.9896C50.168 43.2826 47.4292 44.3654 44.2444 44.3654C41.0597 44.3654 38.3209 43.2826 36.0916 40.9896C33.7986 38.7603 32.7158 36.0214 32.7158 32.8367C32.7158 29.652 33.7986 26.9131 36.0916 24.6201C38.3209 22.3908 41.0597 21.2444 44.2444 21.2444Z" fill="#FF9A2E"/>
<path d="M91.711 50.48C96.6155 50.48 100.756 48.7603 104.195 45.3208C107.635 41.8813 109.418 37.7412 109.418 32.8367C109.418 27.9322 107.635 23.7921 104.195 20.3526C100.756 16.9131 96.6155 15.1297 91.711 15.1297C86.8066 15.1297 82.6665 16.9131 79.227 20.3526C75.7875 23.7921 74.0678 27.9322 74.0678 32.8367C74.0678 37.7412 75.7875 41.8813 79.227 45.3208C82.6665 48.7603 86.8066 50.48 91.711 50.48V50.48ZM91.711 21.2444C94.8958 21.2444 97.6346 22.3908 99.9276 24.6201C102.157 26.9131 103.303 29.652 103.303 32.8367C103.303 36.0214 102.157 38.7603 99.9276 40.9896C97.6346 43.2826 94.8958 44.3654 91.711 44.3654C88.5263 44.3654 85.7875 43.2826 83.5582 40.9896C81.2652 38.7603 80.1824 36.0214 80.1824 32.8367C80.1824 29.652 81.2652 26.9131 83.5582 24.6201C85.7875 22.3908 88.5263 21.2444 91.711 21.2444Z" fill="#FFB65D"/>
<path d="M123.063 1.37173C122.426 2.00867 122.171 2.773 122.171 3.66472V38.4418C122.171 40.7348 122.553 42.773 123.382 44.5564C124.146 46.3399 125.292 47.7412 126.757 48.7603C128.222 49.7794 129.878 50.2252 131.725 50.2252H131.853C133.127 50.2252 134.146 49.9705 134.974 49.3335C135.738 48.7603 136.184 47.9959 136.184 47.0405C136.184 46.1488 135.866 45.3845 135.356 44.7475C134.846 44.1743 134.146 43.8558 133.318 43.8558H131.725C130.77 43.8558 130.006 43.3463 129.432 42.3271C128.795 41.308 128.541 40.0342 128.541 38.4418V3.66472C128.541 2.773 128.222 2.00867 127.649 1.37173C127.012 0.798482 126.248 0.480011 125.356 0.480011C124.401 0.480011 123.636 0.798482 123.063 1.37173V1.37173Z" fill="#FFCF8B"/>
<path d="M166.644 16.4673C164.479 15.5756 161.995 15.1297 159.256 15.1297C156.963 15.1297 154.861 15.5119 152.886 16.2125C150.848 16.9768 149.256 18.0596 148.046 19.4609C146.772 20.9259 146.198 22.7093 146.198 24.7475C146.198 29.9068 150.275 33.2826 158.428 34.8112C161.549 35.4482 163.778 36.1488 165.116 37.0405C166.389 37.9323 167.09 39.0151 167.09 40.2889C167.09 41.6902 166.39 42.773 165.052 43.5373C163.714 44.3654 161.867 44.7475 159.447 44.7475C157.6 44.7475 155.88 44.4291 154.288 43.7921C152.632 43.1552 151.421 42.3272 150.657 41.4354C149.893 40.6711 149.065 40.2889 148.237 40.2889C147.536 40.2889 146.772 40.6074 146.007 41.1807C145.116 41.8176 144.733 42.6456 144.733 43.6647C144.733 44.4291 144.988 45.1297 145.561 45.6393C146.963 47.1042 149.001 48.2507 151.549 49.1424C154.096 50.0342 156.772 50.48 159.702 50.48C162.568 50.48 165.052 50.0342 167.09 49.1424C169.128 48.2507 170.721 46.9768 171.803 45.3845C172.823 43.7921 173.396 42.0087 173.396 40.0342C173.396 37.4227 172.377 35.2571 170.466 33.601C168.555 31.945 165.243 30.6711 160.657 29.7157C158.364 29.2698 156.644 28.824 155.498 28.3144C154.288 27.8049 153.46 27.2953 153.077 26.7221C152.632 26.1488 152.44 25.4482 152.44 24.5565C152.44 23.41 153.014 22.4545 154.288 21.8176C155.561 21.1807 157.154 20.7985 159.128 20.7985C160.784 20.7985 162.249 21.0533 163.46 21.4354C164.606 21.8176 165.753 22.5182 166.835 23.4737C167.727 24.3017 168.682 24.6838 169.829 24.6838C170.53 24.6838 171.103 24.5565 171.612 24.1743C172.313 23.601 172.695 22.9641 172.695 22.1998C172.695 21.5628 172.377 20.8622 171.867 20.1615C170.593 18.6329 168.81 17.359 166.644 16.4673V16.4673Z" fill="#FFE4BA"/>
</svg>
